<svg xmlns="http://www.w3.org/2000/svg" viewBox="0 0 80 96" fill="none">
  <rect width="80" height="96" rx="14" fill="#111"/>
  <g fill="#c9a96e">
    <path d="M4 66 L18 64 L16 59 L5 61 Z"/>
    <path d="M14 50 C10 47 9 44 11 41 C13 39 17 39 20 41 L28 40 C34 39 38 34 40 27 L43 16 C44 11 42 7 38 6 C34 5 31 9 30 14 L27 26 C25 33 21 38 16 41 L12 43 C10 45 10 48 14 50 Z"/>
    <path d="M37 50 L39.2 90 C39.5 91.5 40.8 92.5 42 92.5 C43.5 92.5 44.5 91 44.2 89.5 L42 50 Z"/>
    <ellipse cx="41" cy="91.5" rx="2.5" ry="1.3" opacity="0.35"/>
    <path d="M15 37 C10 32 6 34 7 38 C8 41 11 42 15 40 C19 42 22 41 23 38 C24 34 20 32 15 37 Z" opacity="0.92"/>
    <rect x="51" y="11.5" width="5.5" height="4" rx="0.8" opacity="0.85"/>
  </g>
  <path d="M26 14 C34 8 46 8 54 14" stroke="#c9a96e" stroke-width="2.5" stroke-linecap="round"/>
  <path d="M12 43 C10 41 11 38 15 37" stroke="#c9a96e" stroke-width="2" stroke-linecap="round"/>
</svg>
